<?xml version="1.0" encoding="UTF-8" standalone="no"?>
<svg
   xmlns:dc="http://purl.org/dc/elements/1.1/"
   xmlns:cc="http://creativecommons.org/ns#"
   xmlns:rdf="http://www.w3.org/1999/02/22-rdf-syntax-ns#"
   xmlns:svg="http://www.w3.org/2000/svg"
   xmlns="http://www.w3.org/2000/svg"
   xmlns:sodipodi="http://sodipodi.sourceforge.net/DTD/sodipodi-0.dtd"
   xmlns:inkscape="http://www.inkscape.org/namespaces/inkscape"
   enable-background="new 0 0 48 48"
   height="48px"
   id="Layer_1"
   version="1.1"
   viewBox="0 0 48 48"
   width="48px"
   xml:space="preserve"
   inkscape:version="0.91 r13725"
   sodipodi:docname="deleted.svg"><metadata
     id="metadata4173"><rdf:RDF><cc:Work
         rdf:about=""><dc:format>image/svg+xml</dc:format><dc:type
           rdf:resource="http://purl.org/dc/dcmitype/StillImage" /><dc:title></dc:title></cc:Work></rdf:RDF></metadata><defs
     id="defs4171" /><sodipodi:namedview
     pagecolor="#ffffff"
     bordercolor="#666666"
     borderopacity="1"
     objecttolerance="10"
     gridtolerance="10"
     guidetolerance="10"
     inkscape:pageopacity="0"
     inkscape:pageshadow="2"
     inkscape:window-width="1366"
     inkscape:window-height="742"
     id="namedview4169"
     showgrid="false"
     inkscape:zoom="4.9166667"
     inkscape:cx="24"
     inkscape:cy="24"
     inkscape:window-x="0"
     inkscape:window-y="0"
     inkscape:window-maximized="1"
     inkscape:current-layer="Layer_1" /><path
     clip-rule="evenodd"
     d="M37,47H11c-2.209,0-4-1.791-4-4V5c0-2.209,1.791-4,4-4h18.973  c0.002,0,0.005,0,0.007,0h0.02H30c0.32,0,0.593,0.161,0.776,0.395l9.829,9.829C40.84,11.407,41,11.68,41,12l0,0v0.021  c0,0.002,0,0.003,0,0.005V43C41,45.209,39.209,47,37,47z M31,4.381V11h6.619L31,4.381z M39,13h-9c-0.553,0-1-0.448-1-1V3H11  C9.896,3,9,3.896,9,5v38c0,1.104,0.896,2,2,2h26c1.104,0,2-0.896,2-2V13z M33,39H15c-0.553,0-1-0.447-1-1c0-0.552,0.447-1,1-1h18  c0.553,0,1,0.448,1,1C34,38.553,33.553,39,33,39z M33,31H15c-0.553,0-1-0.447-1-1c0-0.552,0.447-1,1-1h18c0.553,0,1,0.448,1,1  C34,30.553,33.553,31,33,31z M33,23H15c-0.553,0-1-0.447-1-1c0-0.552,0.447-1,1-1h18c0.553,0,1,0.448,1,1C34,22.553,33.553,23,33,23  z"
     fill-rule="evenodd"
     id="path4167"
     style="fill:#ff0000" /></svg>